<svg width="24" height="24" viewBox="0 0 24 24" fill="none" xmlns="http://www.w3.org/2000/svg">
  <path d="M12 3v9.67L8.34 6.01C8.24 5.91 8.12 5.84 8 5.84H5.5C4.12 5.84 3 7.01 3 8.5v7C3 17 4.12 18.16 5.5 18.16h2.5c.12 0 .24-.07.34-.17L12 14.33V21h3V3h-3zm7.5 15.5L15.71 16.71 18.12 14.3l-2.12-2.12L17.5 11.71 20.71 14.93l2.12-2.12L20.5 10.5l-2.12 2.12L16.5 8.5l-2.12 2.12L10.5 8.5 8.5 10.5l2.12 2.12-2.12 2.12L10.5 15.5l2.12-2.12 2.12 2.12zM5.5 7c-.55 0-1 .45-1 1v9c0 .55.45 1 1 1h1.92l4.54 4.54V6.46L6.42 11H5.5c-.55 0-1 .45-1 1z" fill="#FFFFFF"/>
</svg>
