<svg width="24" height="24" viewBox="0 0 24 24" fill="none" xmlns="http://www.w3.org/2000/svg">
  <path d="M3 10v4h4l5 5V5l-5 5H3z" fill="#FFFFFF"/>
  <path d="M15 12c0-1.77-.68-3.41-1.88-4.63-.58-.58-1.52-.58-2.1 0-.58.58-.58 1.52 0 2.1.85.85 1.31 1.94 1.31 3.06s-.46 2.21-1.31 3.06c-.58.58-1.52.58-2.1 0-.58-.58-.58-1.52 0-2.1 1.2-1.2 1.88-2.86 1.88-4.63z" fill="#FFFFFF"/>
  <path d="M20 12c0-2.57-1.01-4.99-2.8-6.79-.58-.58-1.52-.58-2.1 0-.58.58-.58 1.52 0 2.1 1.22 1.22 1.88 2.82 1.88 4.69s-.66 3.47-1.88 4.69c-.58.58-1.52.58-2.1 0-.58-.58-.58-1.52 0-2.1 1.36-1.36 2.12-3.09 2.12-4.48z" fill="#FFFFFF"/>
</svg>
